<?xml version="1.0" standalone="no"?><!DOCTYPE svg PUBLIC "-//W3C//DTD SVG 1.1//EN" "http://www.w3.org/Graphics/SVG/1.1/DTD/svg11.dtd"><svg class="icon" height="512" viewBox="0 0 1024 1024" version="1.1" xmlns="http://www.w3.org/2000/svg"><path d="M1.803 72.85v178.208h77.663c54.247 0 63.841 36.74 63.841 87.47l0.42 314.98c0 163.154 146.201 295.399 326.4 295.399h444.686c57.017 0 106.912-35.289 106.912-89.6v-488.396c0-163.178-146.153-295.399-326.523-295.399h-187.171v-0.532l-506.228-2.13zM245.002 181.909h89.332v448.871c0 60.023 41.835 106.663 90.891 106.663l304.715 1.259c63.569 0 113.094-42.912 113.094-93.74l-0.518-238.304c0-15.466-5.142-27.519-16.418-38.653-11.325-11.182-23.415-16.314-38.967-16.314-15.873 0-27.618 5.083-38.992 16.314-11.25 11.133-16.394 23.187-16.394 38.653v203.911h-94.5v-203.911c0-15.466-5.242-27.519-16.517-38.653-11.325-11.23-23.069-16.314-38.967-16.314-15.552 0-27.519 5.132-38.844 16.314-11.275 11.133-16.541 23.187-16.541 38.653v203.911h-94.5v-203.911c0-40.323 15.306-76.144 44.258-104.775 28.978-28.656 65.027-43.421 105.627-43.421 39.833 0 74.448 14.643 102.56 41.169 28.188-26.551 62.976-41.169 102.809-41.169 40.574 0 76.649 14.764 105.627 43.421 28.978 28.633 44.234 64.453 44.234 104.775l0.371 254.618c-4.451 42.646-22.896 80.475-54.371 112.061h-0.124c-36.915 36.836-82.682 55.837-134.851 55.837h-339.331v-1.621c-41.514-4.356-78.478-22.026-109.212-51.698-35.95-35.071-54.47-78.443-54.47-127.89v-466.055z" /></svg>